<svg t="1620791351442" class="icon" viewBox="0 0 1024 1024" version="1.1" xmlns="http://www.w3.org/2000/svg" p-id="11642" width="200" height="200"><path d="M828.39162917 195.60837083c-174.6534891-174.6534891-457.82807083-174.6534891-632.48155992 0S21.25658015 653.43644165 195.91006925 828.08993075s457.82807083 174.6534891 632.48155992 0S1003.04511827 370.26185992 828.39162917 195.60837083z m-159.59871408 475.29643604l-1.08611602 0.72407734-0.87492655 0.57322814a30.122667 30.122667 0 0 1-8.2363805 5.4607502c-1.29730548 0.57322813-2.62478037 0.69390793-3.98242539 1.08611602-2.77562958 0.78441689-5.4607502 1.5990039-8.53807821 1.65934344-1.68951357 0.12067979-3.31868759-0.48271846-5.00820186-0.6637378l-167.41271566 32.49297151c-20.06297688 3.89191572-42.05682549-9.89572394-49.17691985-30.83362666-7.08992352-20.90773331 3.43936738-41.03104902 23.50234355-44.92296545l114.01201155-22.11452911L354.06062935 406.4355577a37.248 37.248 0 1 1 52.7067969-52.70679689l207.96104692 207.96104692 22.14469853-113.98184213c3.89191572-20.06297688 24.01523144-30.59226778 44.92296545-23.50234355 20.93790343 7.12009365 34.72554238 29.11394297 30.83362666 49.17691984l-32.25161122 166.02490052c0.09050967 0.75424676-0.24135888 1.50849423-0.18102004 2.29291182a34.261333 34.261333 0 0 1-1.02577577 12.3696551l-0.03016942 0.03016942a30.762667 30.762667 0 0 1-6.9089056 12.76186318c-0.15084921 0.15084921-0.15084921 0.3922088-0.30169842 0.54305801l-0.72407734 1.08611602c-0.39220809 0.45254834-0.54305801 1.02577577-0.96543693 1.44815469-0.39220809 0.45254834-0.9352668 0.69390722-1.44815398 0.96543622z" fill="#2c2c2c" p-id="11643"></path></svg>