<svg t="1620797771066" class="icon" viewBox="0 0 1060 1024" version="1.1" xmlns="http://www.w3.org/2000/svg" p-id="12781" width="200" height="200"><path d="M719.881 162.91h5.086c9.481 7.24 21.807 10.256 30.34 18.703 0.26 10.947-0.344 21.808-1.723 32.668L736 221.177c-5.172-0.172-15.515-0.345-20.687-0.517-6.292-10.085-12.498-20.256-18.877-30.255 4.569-1.982 13.792-5.947 18.36-7.93 1.293-4.827 3.793-14.653 5.085-19.566zM541.63 213.42c5.602-11.378 2.672-29.652 15.773-35.772 12.499 4.741 19.222 17.326 28.272 26.376 13.964-0.69 28.014-1.034 42.064-0.948-3.103 14.222-10.947 26.548-18.618 38.616 5.171 13.274 10.43 26.72 11.722 41.029a3291.962 3291.962 0 0 1-40.425-6.724c-12.068 5.43-20.515 18.618-34.134 20.084-11.981-7.585-5.085-26.117-8.792-38.099-12.24-7.843-24.134-16.204-34.909-26.03 12.757-6.638 25.859-12.757 39.047-18.532zM270.632 254.276c16.635-19.997 18.876-65.94 52.062-60.94 15.687 17.067 22.841 39.908 33.788 60.078 23.445 4.568 48.96 2.93 70.766 13.447 13.792 28.875-29.392 44.821-44.132 64.99 1.983 23.79 13.706 48.27 7.327 71.888-26.548 14.912-51.458-14.998-76.283-22.928-24.48 7.93-48.528 37.15-75.076 24.565-8.447-23.703 4.655-49.217 6.12-73.524-16.55-15.688-34.737-30.082-48.528-48.528 2.93-34.047 50.424-21.377 73.956-29.048zM755.825 300.304c14.567 12.757 31.461 20.946 51.372 19.567-4.482 7.757-9.05 15.429-13.532 23.1 2.068 6.81 6.206 20.428 8.274 27.324-18.963-7.671-36.374-0.172-52.665 9.395-0.776-6.206-2.413-18.79-3.19-24.996-7.67-6.206-15.256-12.499-22.84-18.791 8.705-3.793 17.324-7.499 26.03-11.12l6.55-24.479zM577.4 397.015c15.688-12.67 14.481-43.442 38.271-45.51 11.81 13.273 18.274 30.082 26.462 45.597 17.929 5.171 43.443-0.604 55.165 16.032-5.602 18.101-24.048 27.927-36.03 41.46 1.983 17.325 8.965 34.823 5.431 52.32-19.48 9.31-37.84-10.688-55.682-16.894-15.343 7.844-30.427 16.464-46.718 22.066-22.066-11.119-2.844-39.305-3.448-57.492-10.602-15.084-43.011-27.065-31.289-48.7 15.688-4.224 32.065-5.172 47.839-8.879z" p-id="12782" fill="#d81e06"></path><path d="M354.327 548.633c23.963-46.287 46.2-93.608 71.8-139.033 3.707 1.552 10.948 4.655 14.568 6.206 25.686 42.753 45.683 88.867 68.956 133 47.149 7.067 94.384 12.929 141.533 20.255 9.223 1.207 16.29 6.034 21.204 14.309-36.892 37.84-76.455 73.007-114.467 109.812 8.188 50.252 19.48 100.16 25.427 150.756-2.844 1.983-8.62 5.861-11.464 7.844-48.27-19.394-92.918-47.063-139.809-69.56-45.855 22.325-89.987 48.011-136.447 68.784-4.137-1.293-12.498-3.793-16.635-5 9.136-51.027 18.1-102.054 27.151-153.082-38.184-36.288-76.886-72.146-114.553-109.037 2.93-3.19 8.705-9.482 11.636-12.67 49.993-9.569 100.848-14.223 151.1-22.584zM793.061 485.797a2136.938 2136.938 0 0 1 13.533-23.876 903.647 903.647 0 0 1 16.377 23.962c8.964 1.724 17.842 3.448 26.807 5.172-13.62 13.79-19.48 31.202-18.446 50.424-16.29-12.67-33.444-7.672-49.993 0.345 0.258-6.896 0.862-20.601 1.12-27.497a893.328 893.328 0 0 1-17.153-23.186 3896.467 3896.467 0 0 0 27.755-5.344zM733.673 666.634c15.601-18.876 16.635-59.992 46.028-59.905 12.24 18.963 21.29 39.65 31.634 59.733 23.272 6.982 57.664-1.38 71.973 20.514-11.637 20.429-32.323 33.961-48.442 50.77 1.12 23.272 16.29 49.13 5.947 71.11-24.824 2.586-45.77-18.445-68.094-27.41-22.67 8.017-44.046 31.979-68.697 26.549-8.706-22.153 5.085-47.322 6.378-70.594-16.808-15.86-34.564-30.944-49.304-48.787 13.36-24.996 49.045-14.567 72.577-21.98z" p-id="12783" fill="#d81e06"></path></svg>